<?xml version="1.0" encoding="utf-8"?>
<!-- Generator: Adobe Illustrator 28.3.0, SVG Export Plug-In . SVG Version: 6.00 Build 0)  -->
<svg version="1.1" id="Layer_1" xmlns="http://www.w3.org/2000/svg" xmlns:xlink="http://www.w3.org/1999/xlink" x="0px" y="0px"
	 viewBox="0 0 1600 900" style="enable-background:new 0 0 1600 900;" xml:space="preserve">
<style type="text/css">
	.st0{fill:#FFFFFF;}
	.st1{fill:url(#SVGID_1_);stroke:#C9CFD3;stroke-miterlimit:10;}
	.st2{fill:#34383A;}
	.st3{fill:#E64619;}
	.st4{fill:#82B729;}
	.st5{fill:#34A0DA;}
	.st6{fill:#F9B801;}
	.st7{fill:#58A345;}
	.st8{fill:#E7454A;}
	.st9{fill:#E85E54;}
	.st10{fill:#DF1F26;}
	.st11{fill:#359AAC;}
	.st12{fill:#DBA027;}
	.st13{fill:#38AD97;}
	.st14{fill:#328BB4;}
	.st15{fill:#4CB48E;}
	.st16{fill:#F2D149;}
	.st17{fill:#EBBA24;}
</style>
<rect class="st0" width="1600" height="900"/>
<linearGradient id="SVGID_1_" gradientUnits="userSpaceOnUse" x1="801.3509" y1="812.2952" x2="799.2239" y2="233.5216" gradientTransform="matrix(1 0 0 -1 0 902)">
	<stop  offset="0" style="stop-color:#CFD6E5"/>
	<stop  offset="1.517705e-02" style="stop-color:#D9DEEA"/>
	<stop  offset="4.524375e-02" style="stop-color:#E7EAF2"/>
	<stop  offset="8.317278e-02" style="stop-color:#EFF0F6"/>
	<stop  offset="0.1539" style="stop-color:#F1F2F7"/>
	<stop  offset="0.6523" style="stop-color:#F1F2F7"/>
</linearGradient>
<path class="st1" d="M7.2,41.6h1585.6V873c0,10.5-8.9,19-19.9,19H27.2c-11,0-19.9-8.5-19.9-19L7.2,41.6L7.2,41.6L7.2,41.6z"/>
<path class="st2" d="M1582,83.2H17.9c-6.2,0-11.3-5.1-11.3-11.3V7.3c0-2.2,1.8-4,4-4h1578.6c2.2,0,4,1.8,4,4v64.6
	C1593.3,78.2,1588.2,83.2,1582,83.2z"/>
<g>
	<polyline class="st0" points="1452.5,23.9 1452.5,42.2 1449.3,42.2 1449.3,27.9 1449.2,27.9 1443.5,42.2 1441.4,42.2 1435.5,27.9 
		1435.5,27.9 1435.5,42.2 1432.5,42.2 1432.5,23.9 1437.1,23.9 1442.4,37.4 1442.5,37.4 1448.1,23.9 1452.5,23.9 	"/>
	<path class="st0" d="M1458.6,42.2h-3.1V29.1h3.1V42.2 M1455.2,25.3c0-0.5,0.2-1,0.6-1.3s0.8-0.5,1.3-0.5s1,0.2,1.4,0.5
		c0.3,0.3,0.6,0.8,0.5,1.3c0,0.5-0.2,0.9-0.6,1.3c-0.4,0.3-0.8,0.5-1.3,0.5s-1-0.2-1.3-0.5C1455.4,26.2,1455.2,25.8,1455.2,25.3"/>
	<path class="st0" d="M1468,39.9c0.5,0,1.1-0.1,1.5-0.3c0.6-0.2,1.1-0.5,1.6-0.8v2.9c-0.5,0.3-1.1,0.5-1.7,0.6
		c-0.7,0.2-1.4,0.2-2.1,0.2c-1.8,0.1-3.5-0.6-4.8-1.8c-1.2-1.2-1.9-2.9-1.8-4.7c-0.1-1.9,0.6-3.8,1.9-5.2c1.2-1.4,3-2,5.3-2
		c0.6,0,1.2,0.1,1.8,0.2c0.5,0.1,1,0.3,1.4,0.5v2.9c-0.4-0.3-0.9-0.6-1.5-0.8c-0.5-0.2-1-0.3-1.5-0.3c-1.1,0-2.2,0.4-3,1.2
		c-0.8,0.9-1.2,2-1.1,3.2c-0.1,1.1,0.3,2.2,1.1,3.1C1465.9,39.6,1466.9,40,1468,39.9"/>
	<path class="st0" d="M1480,28.9c0.2,0,0.4,0,0.7,0c0.2,0,0.3,0.1,0.5,0.1v3.1c-0.2-0.2-0.5-0.3-0.7-0.3c-0.4-0.1-0.8-0.2-1.1-0.2
		c-0.8,0-1.5,0.3-1.9,1c-0.6,0.9-0.9,1.9-0.8,2.9v6.6h-3.1v-13h3.1v2.1h0.1c0.2-0.7,0.7-1.3,1.3-1.7
		C1478.5,29.1,1479.2,28.9,1480,28.9"/>
	<path class="st0" d="M1484.6,35.7c-0.1,1.1,0.3,2.2,0.9,3.1c0.7,0.8,1.7,1.1,2.7,1.1c1,0.1,1.9-0.3,2.6-1.1c0.7-0.9,1-2.1,0.9-3.2
		c0.1-1.1-0.2-2.3-0.9-3.2c-0.7-0.7-1.6-1.1-2.6-1.1s-2,0.4-2.7,1.1C1484.8,33.4,1484.5,34.6,1484.6,35.7 M1481.3,35.8
		c-0.1-1.9,0.6-3.8,1.8-5.1c1.4-1.3,3.2-2,5.2-1.9c1.8-0.1,3.6,0.6,4.8,1.8c1.2,1.4,1.8,3.1,1.8,4.9c0.1,1.9-0.6,3.7-1.8,5.1
		c-1.3,1.3-3.2,2-5.1,1.9c-1.8,0.1-3.6-0.5-4.9-1.8C1481.9,39.4,1481.2,37.6,1481.3,35.8"/>
	<path class="st0" d="M1499.6,32.5c0,0.4,0.1,0.8,0.4,1c0.6,0.4,1.2,0.7,1.9,1c1,0.3,1.9,0.9,2.6,1.7c0.5,0.6,0.8,1.4,0.8,2.2
		c0,1.2-0.5,2.3-1.4,3c-1.1,0.8-2.5,1.2-3.9,1.1c-0.6,0-1.2-0.1-1.8-0.2c-0.6-0.1-1.2-0.3-1.7-0.5v-3c0.6,0.4,1.2,0.7,1.8,0.9
		c0.6,0.2,1.2,0.3,1.8,0.3c0.5,0,1.1-0.1,1.6-0.3c0.3-0.2,0.5-0.6,0.5-1s-0.2-0.8-0.5-1.1c-0.6-0.4-1.3-0.8-2-1
		c-0.9-0.3-1.8-0.9-2.4-1.6c-0.5-0.7-0.8-1.5-0.7-2.3c0-1.1,0.5-2.2,1.4-2.9c1.1-0.8,2.4-1.2,3.7-1.1c0.5,0,1,0.1,1.6,0.1
		c0.5,0.1,1,0.2,1.4,0.4v2.9c-0.4-0.3-0.9-0.5-1.4-0.7s-1.1-0.3-1.6-0.3s-1,0.1-1.4,0.3C1499.7,31.8,1499.5,32.1,1499.6,32.5"/>
	<path class="st0" d="M1509.8,35.7c-0.1,1.1,0.3,2.2,0.9,3.1c0.7,0.8,1.7,1.1,2.7,1.1c1,0.1,1.9-0.3,2.6-1.1c0.7-0.9,1-2.1,0.9-3.2
		c0.1-1.1-0.2-2.3-0.9-3.2c-0.7-0.7-1.6-1.1-2.6-1.1c-1-0.1-2,0.4-2.7,1.1C1510.1,33.4,1509.8,34.6,1509.8,35.7 M1506.6,35.8
		c-0.1-1.9,0.6-3.8,1.8-5.1c1.4-1.3,3.2-2,5.2-1.9c1.8-0.1,3.6,0.6,4.8,1.8c1.2,1.4,1.8,3.1,1.8,4.9c0.1,1.9-0.6,3.7-1.8,5.1
		c-1.3,1.3-3.2,2-5.1,1.9c-1.8,0.1-3.6-0.5-4.9-1.8C1507.2,39.4,1506.5,37.6,1506.6,35.8"/>
	<path class="st0" d="M1527.5,22.6c0.3,0,0.7,0,1,0.1c0.3,0,0.5,0.1,0.8,0.2v2.7c-0.2-0.1-0.3-0.2-0.5-0.2c-0.3-0.1-0.6-0.1-0.9-0.1
		c-0.6,0-1.1,0.2-1.5,0.6c-0.4,0.5-0.6,1.1-0.5,1.8v1.6h2.9v2.5h-2.9v10.6h-3.2V31.6h-2.2v-2.5h2.2v-1.8c0-1.3,0.4-2.5,1.4-3.4
		C1524.9,23,1526.2,22.5,1527.5,22.6"/>
	<path class="st0" d="M1535.5,39.9c0.2,0,0.4,0,0.7-0.1c0.2-0.1,0.5-0.2,0.7-0.3V42c-0.3,0.2-0.6,0.2-1,0.3s-0.9,0.1-1.4,0.1
		c-1.1,0.1-2.2-0.3-3-1c-0.7-0.9-1.1-2-1-3.1v-6.7h-2.2v-2.5h2.2v-2.9l3.1-0.9v3.9h3.2v2.5h-3.2v6.1c-0.1,0.6,0.1,1.2,0.4,1.7
		C1534.4,39.8,1534.9,40,1535.5,39.9"/>
	<path class="st0" d="M1432,60v-2c0.2,0.2,0.4,0.3,0.6,0.4c0.2,0.1,0.5,0.2,0.8,0.3s0.6,0.2,0.8,0.2c0.2,0,0.5,0.1,0.8,0.1
		c0.6,0,1.3-0.1,1.8-0.4c0.4-0.2,0.6-0.7,0.6-1.2c0-0.2-0.1-0.5-0.2-0.7c-0.2-0.2-0.3-0.4-0.6-0.5c-0.3-0.2-0.6-0.3-0.8-0.5
		c-0.3-0.2-0.7-0.3-1-0.5c-0.4-0.2-0.8-0.4-1.1-0.6c-0.3-0.2-0.6-0.4-0.9-0.7c-0.2-0.2-0.4-0.5-0.6-0.9s-0.2-0.8-0.2-1.1
		c0-0.5,0.1-1,0.4-1.4c0.2-0.4,0.6-0.7,1-1s0.9-0.5,1.4-0.6s1-0.2,1.6-0.2c0.9,0,1.8,0.1,2.7,0.4V51c-0.8-0.5-1.6-0.7-2.5-0.7
		c-0.3,0-0.6,0-0.8,0.1c-0.3,0-0.5,0.1-0.8,0.3c-0.2,0.1-0.4,0.3-0.6,0.5c-0.1,0.2-0.2,0.5-0.2,0.7s0.1,0.5,0.2,0.7s0.3,0.4,0.5,0.5
		c0.2,0.2,0.5,0.3,0.8,0.5s0.7,0.3,1,0.5c0.4,0.2,0.8,0.4,1.2,0.7c0.3,0.2,0.7,0.5,0.9,0.8c0.3,0.3,0.5,0.6,0.7,0.9
		c0.2,0.4,0.2,0.8,0.2,1.2c0.1,1-0.5,1.9-1.3,2.4c-0.4,0.3-0.9,0.5-1.4,0.5c-0.6,0.1-1.1,0.2-1.7,0.2c-0.2,0-0.4,0-0.7,0
		c-0.3,0-0.6-0.1-0.9-0.1s-0.6-0.1-0.8-0.2C1432.4,60.2,1432.2,60.1,1432,60"/>
	<path class="st0" d="M1444.8,53.6c-0.7,0-1.3,0.2-1.7,0.8c-0.5,0.6-0.7,1.3-0.6,2.1c0,0.7,0.2,1.5,0.7,2c0.4,0.5,1.1,0.8,1.7,0.7
		c0.7,0,1.3-0.2,1.7-0.7c0.4-0.6,0.6-1.3,0.6-2.1c0.1-0.7-0.2-1.5-0.6-2.1C1446.1,53.8,1445.4,53.5,1444.8,53.6 M1444.7,60.7
		c-2.2,0.2-4.1-1.5-4.2-3.7c0-0.2,0-0.3,0-0.5c-0.1-1.2,0.4-2.4,1.2-3.2c0.9-0.8,2-1.2,3.2-1.2c1.1-0.1,2.2,0.3,3,1.1
		c0.8,0.9,1.2,2,1.1,3.1c0.2,2.2-1.5,4.2-3.8,4.3C1445.1,60.7,1444.9,60.7,1444.7,60.7"/>
	<polyline class="st0" points="1450.9,48.4 1452.8,48.4 1452.8,60.5 1450.9,60.5 1450.9,48.4 	"/>
	<path class="st0" d="M1462.5,60.5h-1.9v-1.3l0,0c-0.5,1-1.5,1.5-2.5,1.5c-2,0-2.9-1.2-2.9-3.5v-4.9h1.9V57c0,1.5,0.6,2.2,1.7,2.2
		c0.5,0,1-0.2,1.4-0.6c0.4-0.4,0.6-1,0.5-1.6v-4.7h1.9L1462.5,60.5"/>
	<path class="st0" d="M1469.3,60.4c-0.5,0.2-0.9,0.3-1.4,0.3c-1.6,0-2.4-0.8-2.4-2.3v-4.6h-1.4v-1.5h1.4v-1.9l1.9-0.5v2.4h2v1.5h-2
		v4.1c0,0.4,0.1,0.7,0.3,1c0.2,0.2,0.6,0.3,0.9,0.3s0.6-0.1,0.8-0.3L1469.3,60.4"/>
	<path class="st0" d="M1472.8,60.5h-1.9v-8.2h1.9V60.5 M1471.9,50.6c-0.3,0-0.6-0.1-0.8-0.3c-0.2-0.2-0.3-0.5-0.3-0.8
		s0.1-0.6,0.3-0.8c0.2-0.2,0.5-0.3,0.8-0.3s0.6,0.1,0.8,0.3c0.2,0.2,0.3,0.5,0.3,0.8s-0.1,0.5-0.3,0.7
		C1472.5,50.5,1472.2,50.6,1471.9,50.6"/>
	<path class="st0" d="M1479,53.6c-0.7,0-1.3,0.2-1.7,0.8c-0.5,0.6-0.7,1.3-0.6,2.1c0,0.7,0.2,1.5,0.7,2c0.4,0.5,1.1,0.8,1.7,0.7
		c0.7,0,1.3-0.2,1.7-0.7c0.4-0.6,0.6-1.3,0.6-2.1c0.1-0.7-0.2-1.5-0.6-2.1C1480.3,53.8,1479.7,53.5,1479,53.6 M1478.9,60.7
		c-2.2,0.2-4.1-1.5-4.2-3.7c0-0.2,0-0.3,0-0.5c-0.1-1.2,0.4-2.4,1.2-3.2c0.9-0.8,2-1.2,3.2-1.2c1.1-0.1,2.2,0.3,3,1.1
		c0.8,0.9,1.2,2,1.1,3.1c0.2,2.2-1.5,4.2-3.8,4.3C1479.3,60.7,1479.1,60.7,1478.9,60.7"/>
	<path class="st0" d="M1492.5,60.5h-1.9v-4.6c0-1.5-0.6-2.3-1.6-2.3c-0.5,0-1.1,0.2-1.4,0.6c-0.4,0.5-0.6,1-0.6,1.6v4.7h-1.9v-8.2
		h1.9v1.4l0,0c0.5-1,1.6-1.6,2.7-1.5c0.8,0,1.6,0.3,2.1,0.9c0.5,0.7,0.8,1.6,0.7,2.5L1492.5,60.5"/>
	<path class="st0" d="M1494.3,60.2v-1.7c0.7,0.5,1.5,0.8,2.3,0.8c1.1,0,1.7-0.3,1.7-1c0-0.2-0.1-0.3-0.2-0.5
		c-0.1-0.1-0.2-0.3-0.4-0.3c-0.2-0.1-0.4-0.2-0.6-0.3s-0.5-0.2-0.8-0.3s-0.6-0.3-0.9-0.4c-0.2-0.1-0.5-0.3-0.7-0.5s-0.3-0.4-0.4-0.6
		c-0.1-0.3-0.1-0.5-0.1-0.8c0-0.4,0.1-0.7,0.3-1c0.2-0.3,0.4-0.6,0.8-0.8c0.3-0.2,0.7-0.4,1.1-0.5s0.8-0.2,1.2-0.2
		c0.7,0,1.4,0.1,2.1,0.3V54c-0.6-0.4-1.3-0.6-2-0.6c-0.2,0-0.4,0-0.6,0.1c-0.2,0-0.3,0.1-0.5,0.2c-0.1,0.1-0.2,0.2-0.3,0.3
		c-0.1,0.1-0.1,0.3-0.1,0.4c0,0.2,0,0.3,0.1,0.5c0.1,0.1,0.2,0.2,0.3,0.3c0.2,0.1,0.3,0.2,0.5,0.3s0.4,0.2,0.7,0.2
		c0.3,0.1,0.7,0.3,1,0.4c0.3,0.1,0.5,0.3,0.7,0.5s0.3,0.4,0.5,0.7c0.1,0.3,0.2,0.6,0.2,0.9c0,0.4-0.1,0.8-0.3,1.1
		c-0.2,0.3-0.5,0.6-0.8,0.8s-0.7,0.4-1.1,0.5s-0.9,0.2-1.3,0.2C1495.8,60.7,1495,60.6,1494.3,60.2"/>
	<path class="st0" d="M1508.6,50.6v4.2h1.2c0.7,0,1.3-0.2,1.9-0.6c0.4-0.4,0.7-1,0.7-1.6c0-1.3-0.8-2-2.4-2L1508.6,50.6
		 M1508.6,56.3v4.2h-1.9V49h3.5c1.1-0.1,2.2,0.3,3.1,0.9c0.8,0.7,1.2,1.6,1.1,2.6c0,1-0.4,2-1.2,2.7c-0.9,0.7-2,1.1-3.1,1.1H1508.6"
		/>
	<path class="st0" d="M1520.3,56.5l-1.7,0.2c-0.4,0-0.8,0.2-1.2,0.4c-0.3,0.2-0.4,0.6-0.4,1c0,0.3,0.1,0.6,0.4,0.8s0.6,0.3,1,0.3
		c0.5,0,1.1-0.2,1.4-0.6c0.4-0.4,0.6-0.9,0.6-1.5L1520.3,56.5 M1522.1,60.5h-1.8v-1.3l0,0c-0.5,0.9-1.5,1.5-2.5,1.5
		c-0.7,0-1.4-0.2-1.9-0.7s-0.7-1.1-0.7-1.7c0-1.5,0.9-2.4,2.7-2.7l2.5-0.3c0-1.2-0.6-1.8-1.7-1.8c-1,0-1.9,0.4-2.7,1v-1.6
		c0.9-0.5,2-0.8,3-0.8c2.1,0,3.1,1,3.1,3V60.5"/>
	<path class="st0" d="M1529.2,54.1c-0.3-0.2-0.6-0.3-1-0.3c-0.6,0-1.1,0.3-1.4,0.7c-0.4,0.6-0.6,1.3-0.6,2v3.9h-1.9v-8.2h1.9V54l0,0
		c0.2-0.5,0.4-1,0.8-1.3c0.3-0.3,0.8-0.5,1.3-0.5c0.3,0,0.5,0,0.8,0.2L1529.2,54.1"/>
	<path class="st0" d="M1535.3,60.4c-0.5,0.2-0.9,0.3-1.4,0.3c-1.6,0-2.4-0.8-2.4-2.3v-4.6h-1.4v-1.5h1.4v-1.9l1.9-0.5v2.4h2v1.5h-2
		v4.1c0,0.4,0.1,0.7,0.3,1c0.2,0.2,0.6,0.3,0.9,0.3s0.6-0.1,0.8-0.3L1535.3,60.4"/>
	<path class="st0" d="M1544.3,60.5h-1.9v-4.6c0-1.5-0.6-2.3-1.6-2.3c-0.5,0-1.1,0.2-1.4,0.6c-0.4,0.5-0.6,1-0.6,1.6v4.7h-1.9v-8.2
		h1.9v1.4l0,0c0.5-1,1.6-1.6,2.7-1.5c0.8,0,1.6,0.3,2.1,0.9c0.5,0.7,0.8,1.6,0.7,2.5L1544.3,60.5"/>
	<path class="st0" d="M1551.5,55.6c0-0.6-0.1-1.1-0.5-1.5c-0.3-0.4-0.8-0.6-1.3-0.6s-1,0.2-1.4,0.6c-0.4,0.4-0.6,1-0.7,1.5H1551.5
		 M1553.3,56.9h-5.7c0,0.7,0.2,1.3,0.7,1.8c0.5,0.4,1.2,0.7,1.9,0.6c0.9,0,1.7-0.3,2.4-0.8V60c-0.9,0.5-1.9,0.8-3,0.7
		c-1.1,0.1-2.1-0.3-2.9-1.1c-0.7-0.9-1.1-2-1-3.1c-0.1-1.2,0.4-2.3,1.2-3.1c0.7-0.8,1.8-1.2,2.8-1.2c1-0.1,2,0.3,2.6,1.1
		c0.7,0.8,1,1.9,0.9,3L1553.3,56.9"/>
	<path class="st0" d="M1559.9,54.1c-0.3-0.2-0.6-0.3-1-0.3c-0.6,0-1.1,0.3-1.4,0.7c-0.4,0.6-0.6,1.3-0.6,2v3.9h-1.9v-8.2h1.9V54l0,0
		c0.2-0.5,0.4-1,0.8-1.3c0.3-0.3,0.8-0.5,1.3-0.5c0.3,0,0.5,0,0.8,0.2L1559.9,54.1"/>
</g>
<polyline class="st3" points="1384.1,23.8 1401.8,23.8 1401.8,41.3 1384.1,41.3 1384.1,23.8 "/>
<polyline class="st4" points="1403.7,23.8 1421.3,23.8 1421.3,41.3 1403.7,41.3 1403.7,23.8 "/>
<polyline class="st5" points="1384.1,43.1 1401.8,43.1 1401.8,60.6 1384.1,60.6 1384.1,43.1 "/>
<polyline class="st6" points="1403.7,43.1 1421.3,43.1 1421.3,60.6 1403.7,60.6 1403.7,43.1 "/>
<g>
	<g>
		<path class="st0" d="M116.5,34.5c-2.3-1.3-4.8-2-7.6-2c-2.2,0-4.2,0.2-6,0.7s-3.3,1-4.2,1.6v6.7c0.9-0.7,2.1-1.4,3.7-1.9
			c1.5-0.5,3-0.8,4.5-0.8c3.8,0,5.7,1.5,5.7,4.4v1.6c-0.9-0.5-2-0.9-3.2-1.2s-2.5-0.5-3.7-0.5c-3,0-5.3,0.7-6.8,2.1
			s-2.3,3.3-2.3,5.8c0,5.8,3.7,8.8,11.2,8.8c4,0,7.1-0.5,9.2-1.4c2.1-1,3.2-2.5,3.2-4.6l0.1-12.1C119.9,38.1,118.8,35.8,116.5,34.5
			L116.5,34.5z M112.4,52.6c0,0.7-0.3,1.2-1,1.4s-1.9,0.3-3.6,0.3c-1.1,0-2-0.3-2.8-0.9c-0.8-0.6-1.2-1.4-1.2-2.4s0.4-1.8,1.1-2.3
			c0.8-0.5,2-0.7,3.6-0.7c1.4,0,2.7,0.2,3.9,0.6V52.6L112.4,52.6z"/>
		<path class="st0" d="M136.1,26.3h-7.9v7h-3.7v5.8h3.7v12.8c0,2.6,0.7,4.6,2.2,6s3.7,2.1,6.6,2.1c1.9,0,3.4-0.3,4.7-1.1v-6.4
			c-0.4,0.3-0.9,0.6-1.5,0.8s-1.1,0.3-1.7,0.3c-0.9,0-1.5-0.2-1.9-0.6c-0.4-0.4-0.6-1.1-0.6-2V39.1h5.6v-5.8H136L136.1,26.3
			L136.1,26.3z"/>
		<path class="st0" d="M166.3,34.5c-2.3-1.3-4.8-2-7.6-2c-2.2,0-4.2,0.2-6,0.7s-3.3,1-4.2,1.6v6.7c0.9-0.7,2.1-1.4,3.7-1.9
			c1.5-0.5,3-0.8,4.5-0.8c3.8,0,5.7,1.5,5.7,4.4v1.6c-0.9-0.5-2-0.9-3.2-1.2s-2.5-0.5-3.7-0.5c-3,0-5.3,0.7-6.9,2.1
			s-2.3,3.3-2.3,5.8c0,5.8,3.7,8.8,11.2,8.8c4,0,7.1-0.5,9.1-1.4s3.1-2.5,3.2-4.6l0.1-12.1C169.7,38.1,168.5,35.8,166.3,34.5
			L166.3,34.5z M162.2,52.6c0,0.7-0.3,1.2-1,1.4s-1.9,0.3-3.6,0.3c-1.1,0-2-0.3-2.8-0.9c-0.8-0.6-1.2-1.4-1.2-2.4s0.4-1.8,1.1-2.3
			c0.8-0.5,2-0.7,3.6-0.7c1.4,0,2.7,0.2,3.9,0.6V52.6L162.2,52.6z"/>
		<path class="st7" d="M175,42.1c0,11.7,5.5,17.5,16.6,17.5c1.8,0,3.7-0.2,5.7-0.7s3.7-1,5.1-1.7V50c-1.6,1.1-3.3,1.9-4.9,2.4
			c-1.6,0.5-3.1,0.8-4.4,0.8c-3.3,0-5.7-0.8-7.2-2.5c-1.6-1.7-2.4-4.5-2.4-8.6s0.8-6.9,2.3-8.7c1.5-1.7,3.9-2.6,6.9-2.6
			s6.4,1.1,9.6,3.2v-7.1c-3.7-1.6-7.3-2.5-10.7-2.5C180.5,24.4,175,30.3,175,42.1L175,42.1z"/>
		<path class="st7" d="M215.1,33.2c-1.6,0.4-3,0.8-4.2,1.4c-1.3,0.5-2.1,1-2.6,1.5V59h7.5V39.1c1-0.2,2.3-0.2,3.9-0.2
			c2.5,0,4.5,0.2,5.8,0.5v-5.5c-1.1-0.8-3-1.3-5.8-1.3C218.2,32.6,216.7,32.8,215.1,33.2L215.1,33.2z"/>
		<path class="st7" d="M248.7,34.5c-2.3-1.3-4.8-2-7.6-2c-2.2,0-4.2,0.2-6,0.7s-3.3,1-4.2,1.6v6.7c0.9-0.7,2.1-1.4,3.7-1.9
			c1.5-0.5,3-0.8,4.5-0.8c3.8,0,5.7,1.5,5.7,4.4v1.6c-0.9-0.5-2-0.9-3.2-1.2s-2.5-0.5-3.7-0.5c-3,0-5.3,0.7-6.9,2.1
			s-2.3,3.3-2.3,5.8c0,5.8,3.7,8.8,11.2,8.8c4,0,7.1-0.5,9.1-1.4s3.1-2.5,3.2-4.6l0.1-12.1C252.1,38.1,250.9,35.8,248.7,34.5
			L248.7,34.5z M244.6,52.6c0,0.7-0.3,1.2-1,1.4s-1.9,0.3-3.6,0.3c-1.1,0-2-0.3-2.8-0.9c-0.8-0.6-1.2-1.4-1.2-2.4s0.4-1.8,1.1-2.3
			c0.8-0.5,2-0.7,3.6-0.7c1.4,0,2.7,0.2,3.9,0.6V52.6L244.6,52.6z"/>
		<path class="st7" d="M270.5,22.5c-3,0-5.4,0.8-7.1,2.2c-1.7,1.5-2.6,4.2-2.6,8v0.6H257v5.8h3.7v19.8h7.5V39.1h5.6v-5.8h-5.6v-1.5
			c0-1.2,0.3-2.1,0.8-2.6s1.3-0.8,2.2-0.8c0.6,0,1,0.1,1.4,0.3c0.4,0.2,0.7,0.5,1.1,0.8V23c-0.4-0.1-0.9-0.2-1.6-0.4
			S271,22.5,270.5,22.5L270.5,22.5z"/>
		<path class="st7" d="M288.2,26.3h-7.9v7h-3.7v5.8h3.7v12.8c0,2.6,0.7,4.6,2.2,6s3.7,2.1,6.6,2.1c1.9,0,3.4-0.3,4.7-1.1v-6.4
			c-0.4,0.3-0.9,0.6-1.5,0.8s-1.1,0.3-1.7,0.3c-0.9,0-1.5-0.2-1.9-0.6c-0.4-0.4-0.6-1.1-0.6-2V39.1h5.6v-5.8h-5.6L288.2,26.3
			L288.2,26.3z"/>
		<path class="st7" d="M310.9,32.5c-4.1,0-7.2,1.2-9.4,3.7c-2.2,2.4-3.3,5.9-3.3,10.3c0,2.7,0.5,5,1.6,7s2.6,3.5,4.5,4.6
			c2,1.1,4.2,1.6,6.8,1.6c3.4,0,6.5-0.6,9.3-1.7v-6.5c-1.4,0.6-2.6,1-3.8,1.4s-2.4,0.5-3.7,0.5c-4.1,0-6.5-1.8-7.1-5.3h16.9
			C322.8,37.7,318.9,32.5,310.9,32.5L310.9,32.5z M305.8,43.3c0.5-3.4,2.1-5.1,4.8-5.1c1.4,0,2.5,0.4,3.2,1.2s1.2,2.1,1.4,3.9
			L305.8,43.3L305.8,43.3z"/>
		<path class="st7" d="M334.9,33.2c-1.6,0.4-3,0.8-4.2,1.4c-1.3,0.5-2.1,1-2.6,1.5V59h7.5V39.1c1-0.2,2.3-0.2,3.9-0.2
			c2.5,0,4.5,0.2,5.8,0.5v-5.5c-1.1-0.8-3-1.3-5.8-1.3C337.9,32.6,336.4,32.8,334.9,33.2L334.9,33.2z"/>
		<path class="st7" d="M367,47c-0.8-1-1.6-1.8-2.6-2.2s-2.3-0.8-4-1.3c-1.5-0.4-2.6-0.8-3.2-1.2c-0.7-0.4-1-1-1-1.8
			c0-0.7,0.3-1.2,0.9-1.6c0.6-0.4,1.5-0.6,2.8-0.6s2.3,0.2,3.3,0.6c0.9,0.4,2.3,1.1,4,2V35c-1.2-0.7-2.5-1.3-3.7-1.6
			c-1.3-0.3-2.9-0.5-4.9-0.5c-1.6,0-3.2,0.3-4.8,0.9c-1.5,0.6-2.8,1.5-3.8,2.8s-1.5,2.9-1.5,4.9c0,2.3,0.6,4.1,1.9,5.3
			s2.9,2,4.8,2.4s3.2,0.8,4,1.2s1.3,0.9,1.3,1.7c0,0.7-0.3,1.2-0.8,1.6c-0.5,0.4-1.4,0.6-2.5,0.6c-3,0-5.9-1-8.6-3.1v6.6
			c1.5,0.6,2.8,1.1,4,1.4c1.2,0.3,2.6,0.5,4.2,0.5c3.3,0,6-0.7,8.1-2s3.2-3.5,3.3-6.3C368.2,49.5,367.8,48,367,47L367,47z"/>
		<path class="st0" d="M88.1,29.4c-2.7-2.8-6.9-4.2-12.6-4.2H62v1.4c0.1,0.1,0.3,0.2,0.4,0.3c0.1,0,0.1,0.1,0.2,0.1
			c2.9,2,5.1,4.7,6.4,7.9c0.4,0.8,0.7,1.7,0.9,2.6c0.1,0.4,0.2,0.7,0.2,1.1v-7h4.4c3.1,0,5.4,0.9,6.9,2.6c1.6,1.7,2.3,4.4,2.3,8
			S83,48.3,81.5,50c-1.6,1.7-3.9,2.6-6.9,2.6h-4.4v-7.2c0,0.2-0.1,0.5-0.2,0.7c0,0.1-0.1,0.2-0.1,0.4c-0.4,1.6-1,3.2-1.8,4.5
			c-1.5,2.6-3.6,4.8-6.1,6.4v1.5h13.5c5.7,0,9.9-1.4,12.6-4.2s4.1-7,4.1-12.6S90.8,32.2,88.1,29.4L88.1,29.4z"/>
	</g>
	<g>
		<path class="st8" d="M41.8,33.8c-0.1-0.4-0.2-0.9-0.2-1.3c-2,1.1-4,2.3-5.7,3.8l0,0c-0.2,0.5-0.3,1.1-0.5,1.7
			c-0.2,0.9-0.3,1.8-0.4,2.7C36.9,38.1,39.2,35.8,41.8,33.8L41.8,33.8z"/>
		<path class="st9" d="M41.2,28.4c-1.2,1-2.3,2.2-3.2,3.6c1.1-0.7,2.2-1.3,3.3-1.9C41.2,29.6,41.2,29,41.2,28.4z"/>
		<path class="st10" d="M43.1,38.7c-0.3-0.8-0.5-1.6-0.8-2.4c-2.9,2.3-5.3,5.1-7.3,8.2l0,0c0,0.2,0,0.3,0.1,0.5c0,0.1,0,0.2,0,0.2
			v0.1c0,0,0,0,0,0.1l0,0c0,0.1,0,0.2,0.1,0.4l0,0c0.3,1.3,0.7,2.5,1.3,3.7c0.4-1.1,0.9-2.2,1.4-3.2C39.4,43.5,41.1,41,43.1,38.7
			L43.1,38.7z"/>
		<path class="st11" d="M60.2,42.4c-4.9-4.7-7.2-11.5-6.3-18.1c-1.4-0.1-2.7,0-4.1,0.1c-0.8,7.1,1.5,14.3,6.4,19.7
			C57.6,43.7,58.9,43.1,60.2,42.4L60.2,42.4z"/>
		<path class="st10" d="M46.6,45.5c-1-1.5-1.8-3-2.5-4.6c-1,1.2-1.9,2.4-2.7,3.8C43.1,45.1,44.9,45.4,46.6,45.5z"/>
		<path class="st12" d="M42.1,56.2c1.9,1.4,4,2.4,6.4,3c7.7,1.8,15.5-1.8,19.2-8.4C61.5,57.2,51.6,59.3,42.1,56.2z"/>
		<path class="st13" d="M62.2,41.2c1.1-0.8,2.2-1.6,3.2-2.5c-3.8-3.1-5.8-8-5.4-12.7c-1.3-0.6-2.6-1-3.9-1.3
			C55.3,30.7,57.5,37,62.2,41.2L62.2,41.2z"/>
		<path class="st14" d="M53.9,44.8C49.2,39.2,47,32,47.5,25l0,0l0,0c-0.1,0-0.3,0.1-0.4,0.1c-0.1,0-0.2,0.1-0.3,0.1
			c-1.2,0.4-2.3,0.9-3.3,1.6c-0.1,6.6,1.9,13.1,5.9,18.7C50.9,45.4,52.4,45.2,53.9,44.8L53.9,44.8z"/>
		<path class="st15" d="M66.9,37.1c0.6-0.7,1.2-1.4,1.7-2.1c-1.3-3.1-3.5-5.8-6.3-7.7c-0.1,0-0.1-0.1-0.2-0.1l0,0
			C62.2,31,63.8,34.6,66.9,37.1L66.9,37.1z"/>
		<path class="st16" d="M53.3,47.2c-5.7,1.1-10.5,0.2-13-0.6c-0.2,0.5-0.7,1.4-0.9,1.9c2,0.9,8.3,3,15.9,1.3
			c7.9-1.8,12.6-7.1,14.7-10c-0.1-0.8-0.2-1.6-0.4-2.4C67.8,39.5,62.4,45.4,53.3,47.2L53.3,47.2z"/>
		<path class="st17" d="M54.6,52.2c-7.7,1.5-13.8-1.1-15.9-2c-0.2,0.4-0.6,1.1-0.8,1.6c0.2,0.2,0.3,0.5,0.5,0.7
			c2.3,1.4,9.3,4.7,17.8,2.7c6.8-1.6,11-5.8,13.3-8.8c0-0.1,0.1-0.2,0.1-0.3c0.2-0.7,0.3-1.4,0.3-2.1c0-0.1,0-0.3,0-0.4v-0.1v-0.1
			c0-0.2,0-0.4,0-0.7C68.5,44.6,63.4,50.5,54.6,52.2L54.6,52.2z"/>
	</g>
</g>
</svg>
